<?xml version="1.0" encoding="utf-8"?>
<!-- Generator: Adobe Illustrator 18.0.0, SVG Export Plug-In . SVG Version: 6.00 Build 0)  -->
<!DOCTYPE svg PUBLIC "-//W3C//DTD SVG 1.1//EN" "http://www.w3.org/Graphics/SVG/1.1/DTD/svg11.dtd">
<svg version="1.1" id="Capa_1" xmlns="http://www.w3.org/2000/svg" xmlns:xlink="http://www.w3.org/1999/xlink" x="0px" y="0px"
	 viewBox="0 0 612 792" enable-background="new 0 0 612 792" xml:space="preserve">
<ellipse fill="#FAD715" cx="150.3" cy="653.5" rx="97.1" ry="39.6"/>
<path fill="#FAD715" d="M150.3,480.3c-31.1,0-56.3-25.2-56.3-56.3s25.2-56.3,56.3-56.3s56.3,25.2,56.3,56.3
	C206.6,455.1,181.4,480.3,150.3,480.3z"/>
<ellipse fill="#FAD715" cx="494.3" cy="383.7" rx="74.6" ry="30.4"/>
<path fill="#FAD715" d="M494.3,250.7c-23.9,0-43.2-19.4-43.2-43.2s19.4-43.2,43.2-43.2c23.9,0,43.2,19.4,43.2,43.2
	S518.2,250.7,494.3,250.7z"/>
<path d="M150.3,274C67.6,274,0.3,341.3,0.3,424c0,51.4,24.4,106.6,72.6,164.2c7.2,8.6,14.3,16.5,21.1,23.7
	c-31.1,8.5-49.8,23.8-49.8,41.6c0,31.5,54.7,48.5,106.1,48.5s106.1-17,106.1-48.5c0-17.8-18.7-33.1-49.8-41.6
	c12.4-13.1,25.8-28.5,38.5-45.8c2.9-4,2.1-9.6-1.9-12.5c-4-2.9-9.6-2.1-12.5,1.9c-15.3,20.8-31.9,39-46.4,53.6
	c-1.7,0.8-3,2.2-3.9,3.9c-13,12.7-23.9,22.2-30,27.3c-6.1-5.1-16.9-14.4-29.6-27c-0.9-2-2.5-3.6-4.5-4.5
	c-40.6-40.9-98-111.5-98-184.8c0-72.8,59.3-132.1,132.1-132.1S282.4,351.2,282.4,424c0,31.8-10.8,66.2-32.2,102.1
	c-2.5,4.3-1.1,9.8,3.1,12.3c4.3,2.5,9.8,1.1,12.3-3.1c23.1-38.8,34.7-76.2,34.7-111.3C300.4,341.3,233.1,274,150.3,274z
	 M150.3,660.8c1.9,0,3.9-0.6,5.5-1.9c1.1-0.9,16.1-12.5,36.1-32.1c30.3,6.2,46.5,18.1,46.5,26.6c0,6.4-8.8,13.9-22.9,19.7
	c-17.3,7-40.5,10.9-65.3,10.9c-53.8,0-88.1-18.1-88.1-30.6c0-8.6,16.3-20.4,46.6-26.6c20.1,19.7,35.1,31.4,36.1,32.1
	C146.5,660.2,148.4,660.8,150.3,660.8z"/>
<path d="M98.7,399.8c-4.8-1.4-9.7,1.4-11.1,6.1c-1.7,5.8-2.5,11.9-2.5,18c0,36,29.3,65.2,65.2,65.2s65.2-29.3,65.2-65.2
	s-29.3-65.2-65.2-65.2c-14.2,0-27.7,4.5-39,13c-4,3-4.8,8.6-1.8,12.6c3,4,8.6,4.8,12.6,1.8c8.2-6.1,18-9.4,28.3-9.4
	c26.1,0,47.3,21.2,47.3,47.3c0,26.1-21.2,47.3-47.3,47.3S103,450.1,103,424c0-4.5,0.6-8.9,1.8-13.1
	C106.2,406.2,103.5,401.2,98.7,399.8z"/>
<path d="M577.9,383.7c0-14.2-13.4-26.1-36.5-33c4.6-4.9,9.3-10.2,14-15.8c37.4-44.6,56.3-87.5,56.3-127.5
	c0-64.7-52.7-117.4-117.4-117.4c-47.3,0-89.8,28.1-108.2,71.7c-1.9,4.6,0.2,9.8,4.8,11.8c4.6,1.9,9.8-0.2,11.8-4.8
	c15.6-36.9,51.6-60.7,91.6-60.7c54.8,0,99.5,44.6,99.5,99.5c0,74.2-77.9,145.2-99.5,163.5c-4.8-4-12.3-10.6-21-19.2
	c-0.9-1.7-2.3-3.1-4-4c-31-31.2-74.4-84.8-74.4-140.3c0-5-4-9-9-9c-5,0-9,4-9,9c0,40,18.9,82.9,56.3,127.5c4.7,5.6,9.4,10.9,14,15.8
	c-23.1,7-36.5,18.8-36.5,33c0,12,9.7,22.6,27.4,29.8c15.1,6.2,35.1,9.6,56.2,9.6c21.1,0,41-3.4,56.2-9.6
	C568.2,406.3,577.9,395.8,577.9,383.7z M494.3,405.2c-42.5,0-65.7-14.2-65.7-21.4c0-4.7,10.5-13.4,33.1-18.2
	c15.1,14.7,26.4,23.5,27.1,24.1c1.6,1.3,3.6,1.9,5.5,1.9c1.9,0,3.9-0.6,5.5-1.9c0.7-0.6,12-9.3,27.1-24.1c10,2.1,18.7,5.3,24.8,9
	c5.2,3.1,8.3,6.6,8.3,9.2C560,391,536.8,405.2,494.3,405.2z"/>
<path d="M546.5,207.4c0-28.8-23.4-52.2-52.2-52.2c-28.8,0-52.2,23.4-52.2,52.2c0,28.8,23.4,52.2,52.2,52.2
	C523.1,259.6,546.5,236.2,546.5,207.4z M460,207.4c0-18.9,15.4-34.3,34.3-34.3c18.9,0,34.3,15.4,34.3,34.3
	c0,18.9-15.4,34.3-34.3,34.3S460,226.3,460,207.4z"/>
<path fill="#FAD715" d="M377.9,392.7c5,0,9-4,9-9s-4-9-9-9h-4.1c-3,0-6,0.2-8.9,0.6c-4.9,0.7-8.4,5.2-7.7,10.1
	c0.6,4.5,4.5,7.8,8.9,7.8c0.4,0,0.8,0,1.2-0.1c2.2-0.3,4.4-0.4,6.5-0.4L377.9,392.7L377.9,392.7z"/>
<path d="M348.2,644C348.2,644,348.2,644,348.2,644l-11.9,0.1c-5,0-9,4.1-8.9,9c0,4.9,4,8.9,9,8.9c0,0,0,0,0,0l11.9-0.1
	c5,0,9-4.1,8.9-9C357.2,648,353.2,644,348.2,644z"/>
<path d="M388.6,509c5,0,9-4,9-9s-4-9-9-9h-11.9c-5,0-9,4-9,9c0,5,4,9,9,9H388.6z"/>
<path d="M321.3,415.3c1.6,1.1,3.4,1.7,5.2,1.7c2.8,0,5.5-1.3,7.3-3.7c1.9-2.7,4.2-5.2,6.6-7.5c3.6-3.4,3.9-9,0.5-12.7
	c-3.4-3.6-9-3.9-12.7-0.5c-3.3,3.1-6.4,6.5-9,10.2C316.4,406.8,317.3,412.4,321.3,415.3z"/>
<path fill="#FAD715" d="M395.7,643.8C395.6,643.8,395.6,643.8,395.7,643.8l-11.9,0.1c-5,0-9,4.1-8.9,9c0,4.9,4,8.9,9,8.9
	c0,0,0,0,0,0l11.9-0.1c5,0,9-4.1,8.9-9C404.6,647.8,400.6,643.8,395.7,643.8z"/>
<path fill="#FAD715" d="M300.8,644.2C300.8,644.2,300.8,644.2,300.8,644.2l-11.9,0.1c-5,0-9,4.1-8.9,9c0,4.9,4,8.9,9,8.9
	c0,0,0,0,0,0l11.9-0.1c5,0,9-4.1,8.9-9C309.8,648.2,305.8,644.2,300.8,644.2z"/>
<path d="M342.8,500c3,0,5.9-1.5,7.6-4.2c2.6-4.2,1.4-9.7-2.8-12.4c-2.8-1.8-5.5-3.9-7.9-6.2c-3.6-3.4-9.3-3.3-12.7,0.2
	c-3.4,3.6-3.3,9.3,0.2,12.7c3.3,3.2,6.9,6,10.7,8.4C339.5,499.6,341.2,500,342.8,500z"/>
<path d="M325.6,451.3c-0.6-3.1-0.9-6.3-0.9-9.5l0-0.5c0.1-5-3.9-9-8.9-9.1c0,0-0.1,0-0.1,0c-4.9,0-8.9,3.9-9,8.9l0,0.7
	c0,4.3,0.4,8.7,1.2,12.9c0.8,4.3,4.6,7.3,8.8,7.3c0.6,0,1.1-0.1,1.7-0.2C323.3,460.9,326.5,456.2,325.6,451.3z"/>
<path fill="#FAD715" d="M436,509c5,0,9-4,9-9s-4-9-9-9h-11.9c-5,0-9,4-9,9c0,5,4,9,9,9H436z"/>
<path d="M574.5,525.3c2.7,0,5.3-1.2,7-3.4c3.1-3.9,2.4-9.5-1.5-12.6c-3.5-2.7-7.2-5.2-11-7.4c-4.3-2.4-9.8-0.9-12.2,3.4
	c-2.4,4.3-0.9,9.8,3.4,12.2c3,1.7,5.9,3.7,8.7,5.8C570.6,524.7,572.5,525.3,574.5,525.3z"/>
<path d="M536.6,642.6c-2.9,0.4-5.9,0.6-9,0.6l-1.7,0c-5,0-9,4.1-8.9,9c0,4.9,4,8.9,9,8.9c0,0,0,0,0,0l1.7,0c3.8,0,7.6-0.3,11.3-0.8
	c4.9-0.7,8.3-5.2,7.7-10.1C546.1,645.3,541.5,641.9,536.6,642.6z"/>
<path d="M573.7,624.7c-2.5,2.4-5.2,4.6-8.1,6.6c-4.1,2.8-5.1,8.4-2.3,12.5c1.7,2.5,4.5,3.9,7.4,3.9c1.8,0,3.5-0.5,5.1-1.6
	c3.6-2.5,7.1-5.3,10.3-8.4c3.6-3.4,3.7-9.1,0.3-12.7C582.9,621.4,577.2,621.3,573.7,624.7z"/>
<path fill="#FAD715" d="M603.8,581.4c-4.9-0.9-9.6,2.3-10.5,7.2c-0.6,3.4-1.6,6.8-2.7,10.1c-1.7,4.7,0.8,9.8,5.4,11.5
	c1,0.4,2,0.5,3,0.5c3.7,0,7.1-2.3,8.5-6c1.5-4.1,2.6-8.4,3.5-12.8C611.9,587,608.7,582.3,603.8,581.4z"/>
<path d="M592.6,535.8c-4.5,2.1-6.4,7.4-4.3,11.9c1.5,3.1,2.7,6.4,3.7,9.8c1.1,3.9,4.7,6.5,8.6,6.5c0.8,0,1.7-0.1,2.5-0.4
	c4.8-1.4,7.5-6.3,6.1-11.1c-1.2-4.2-2.8-8.4-4.6-12.4C602.4,535.7,597.1,533.7,592.6,535.8z"/>
<path d="M483.4,509c5,0,9-4,9-9s-4-9-9-9h-11.9c-5,0-9,4-9,9c0,5,4,9,9,9H483.4z"/>
<path d="M443.1,643.6C443,643.6,443,643.6,443.1,643.6l-11.9,0.1c-5,0-9,4.1-8.9,9c0,4.9,4,8.9,9,8.9c0,0,0,0,0,0l11.9-0.1
	c5,0,9-4.1,8.9-9C452,647.6,448,643.6,443.1,643.6z"/>
<path d="M527.4,509c1,0,2,0,3,0.1c0.1,0,0.3,0,0.4,0c4.8,0,8.7-3.8,9-8.6c0.2-5-3.6-9.1-8.6-9.4c-1.3-0.1-2.6-0.1-3.8-0.1h-8.4
	c-5,0-9,4-9,9c0,5,4,9,9,9L527.4,509L527.4,509z"/>
<path d="M490.5,643.4C490.5,643.4,490.4,643.4,490.5,643.4l-11.9,0.1c-5,0-9,4.1-8.9,9c0,4.9,4,8.9,9,8.9c0,0,0,0,0,0l11.9-0.1
	c5,0,9-4.1,8.9-9C499.4,647.4,495.4,643.4,490.5,643.4z"/>
</svg>
