<?xml version="1.0" encoding="utf-8"?>
<!-- Generator: Adobe Illustrator 18.0.0, SVG Export Plug-In . SVG Version: 6.00 Build 0)  -->
<!DOCTYPE svg PUBLIC "-//W3C//DTD SVG 1.1//EN" "http://www.w3.org/Graphics/SVG/1.1/DTD/svg11.dtd">
<svg version="1.1" id="Capa_1" xmlns="http://www.w3.org/2000/svg" xmlns:xlink="http://www.w3.org/1999/xlink" x="0px" y="0px"
	 viewBox="0 0 612 792" enable-background="new 0 0 612 792" xml:space="preserve">
<path fill="#FAD715" d="M464.3,467.3c0,28.3-21.4,52-49.6,54.9l-0.4,0.5L359,467.3l-4.9-4.9l0.1-0.1c2.6-30.4,29.3-52.9,59.7-50.3
	C442.5,414.4,464.5,438.5,464.3,467.3z"/>
<path fill="#FAD715" d="M323.9,266.6c7.7,0.1,15.2-2.5,21.3-7.3c5.4-4.3,8.7-10.8,8.8-17.8c-0.3-6.5-4.8-12.1-11.1-13.7l-19-6.3
	v-45.1c-7.7-0.1-15.2,2.5-21.3,7.3c-5.4,4.3-8.7,10.8-8.8,17.8c0.3,6.5,4.8,12.1,11.1,13.7l19,6.3V266.6z M323.9,131.2
	c49.9,0,90.3,40.4,90.3,90.3s-40.4,90.3-90.3,90.3s-90.3-40.4-90.3-90.3S274,131.2,323.9,131.2z"/>
<g>
	<path fill="#FFDB6F" d="M354,241.6c-0.1,6.9-3.4,13.5-8.8,17.8c-6,4.8-13.5,7.4-21.3,7.3v-45.1l19,6.3
		C349.1,229.5,353.6,235,354,241.6z"/>
	<path fill="#FFDB6F" d="M323.9,176.3v45.1l-19-6.3c-6.3-1.7-10.8-7.2-11.1-13.7c0.1-6.9,3.4-13.5,8.8-17.8
		C308.6,178.8,316.1,176.2,323.9,176.3z"/>
</g>
<path fill="#FAD715" d="M293,472.3h-99.5l-20.1,8.6c0.6-33.2,28.1-59.7,61.3-59.1C263.7,422.4,288.3,443.6,293,472.3z"/>
<g>
	<path fill="#FFDB6F" d="M388.7,120.1c-39.6-24.8-90-24.8-129.6,0l-10.9-16.9c46.1-29.5,105.2-29.5,151.3,0L388.7,120.1z"/>
	<path fill="#FFDB6F" d="M194.2,275.5c-7.1-17.1-10.8-35.5-10.8-54h20.1c0,15.9,3.1,31.6,9.3,46.3L194.2,275.5z"/>
	<path fill="#FFDB6F" d="M323.9,361.9v-20.1c15.9,0,31.6-3.1,46.3-9.3l7.7,18.5C360.8,358.3,342.4,362,323.9,361.9z"/>
	<path fill="#FFDB6F" d="M453.5,275.5l-18.5-7.7c6.1-14.7,9.3-30.4,9.3-46.3h20.1C464.3,240,460.7,258.4,453.5,275.5z"/>
</g>
<g>
	<path fill="#FF8030" d="M323.9,321.8c-55.4,0-100.3-44.9-100.3-100.3s44.9-100.3,100.3-100.3s100.3,44.9,100.3,100.3
		C424.1,276.9,379.2,321.8,323.9,321.8z M323.9,141.2c-44.3,0-80.3,35.9-80.3,80.3s35.9,80.3,80.3,80.3s80.3-35.9,80.3-80.3
		C404.1,177.2,368.2,141.3,323.9,141.2z"/>
	<path fill="#FF8030" d="M323.9,276.7c-10.1,0.1-19.9-3.3-27.7-9.7c-7.7-6.2-12.3-15.6-12.4-25.5h20.1c0.2,4,2.1,7.6,5.2,10
		c8.9,6.4,20.8,6.4,29.7,0c3.2-2.4,5.1-6.1,5.2-10c0-1.4-1.5-3.3-4.2-4.2l-38-12.7c-10.4-3.1-17.6-12.4-18-23.3
		c0.2-9.9,4.7-19.3,12.4-25.5c7.8-6.4,17.6-9.8,27.7-9.7c20.7-1.3,38.6,14.4,40.1,35.1h-20.1c0-8.2-9.2-15-20.1-15
		c-5.4-0.1-10.6,1.7-14.8,5c-3.2,2.4-5.1,6.1-5.2,10c0,1.4,1.5,3.3,4.2,4.2l38,12.7c10.4,3.1,17.6,12.4,18,23.3
		c-0.2,9.9-4.7,19.3-12.4,25.5C343.7,273.4,333.9,276.8,323.9,276.7z"/>
	<rect x="313.8" y="161.3" fill="#FF8030" width="20.1" height="120.4"/>
</g>
<path fill="#FAD715" d="M259,120.1c39.6-24.8,90-24.8,129.6,0l10.8-16.9c-46.1-29.5-105.2-29.5-151.3,0L259,120.1z"/>
<path fill="#FAD715" d="M183.4,221.5c0,18.6,3.7,36.9,10.8,54.1l18.5-7.7c-6.1-14.7-9.3-30.4-9.3-46.3L183.4,221.5L183.4,221.5z"/>
<path fill="#FAD715" d="M323.9,361.9c18.6,0,36.9-3.6,54-10.8l-7.8-18.5c-14.6,6.1-30.4,9.3-46.3,9.3L323.9,361.9L323.9,361.9z"/>
<path fill="#FAD715" d="M453.5,275.5c7.2-17.1,10.8-35.5,10.8-54h-20.1c0,15.9-3.1,31.6-9.3,46.3L453.5,275.5z"/>
<path d="M424.2,221.5c0-55.4-44.9-100.3-100.3-100.3s-100.3,44.9-100.3,100.3s44.9,100.3,100.3,100.3
	C379.2,321.8,424.1,276.9,424.2,221.5z M323.9,301.7c-44.3,0-80.3-35.9-80.3-80.3s35.9-80.3,80.3-80.3s80.3,35.9,80.3,80.3
	C404.1,265.8,368.2,301.7,323.9,301.7z"/>
<path d="M343.9,201.4H364c-0.9-16.9-13.4-31-30.1-33.9v-6.3h-20.1v6.3c-16.7,2.9-29.2,16.9-30.1,33.9c0.4,10.8,7.7,20.2,18.1,23.3
	l12,4v25.7c-5.6-1.9-9.5-7-10-12.9h-20.1c0.9,16.9,13.4,31,30.1,33.9v6.3h20.1v-6.3c16.7-2.9,29.2-16.9,30.1-33.9
	c-0.4-10.8-7.7-20.2-18.1-23.3l-12-4v-25.7C339.5,190.5,343.4,195.5,343.9,201.4z M339.6,237.3c2.5,0.9,4.3,2.6,4.3,4.2
	c-0.5,5.9-4.4,10.9-10,12.9v-19.1L339.6,237.3z M308.1,205.7c-2.5-0.9-4.3-2.6-4.3-4.2c0.5-5.9,4.4-10.9,10-12.9v19.1L308.1,205.7z"
	/>
<path d="M461.4,284.6c-3.9-3.9-10.3-3.9-14.2,0L318.8,413L180.5,274.6c-3.9-3.9-10.3-3.9-14.2,0L35.8,405c-3.9,3.9-3.9,10.3,0,14.2
	l73.2,73.2H-7.2v20.1h130.4c1.4,0,2.7-0.3,4-0.8l68.3-29.3h148.4v40.1H233.6c-5.5,0-10,4.5-10,10c0,3.9,2.3,7.5,5.8,9.1l130.4,60.2
	c3.3,1.5,7.1,1.1,10-1l173.8-125.4l26.4,26.4L370.3,673h-54.7l-188.9-69.6c-1.1-0.4-2.3-0.6-3.5-0.6H-7.2v20.1h128.6l188.9,69.6
	c1.1,0.4,2.3,0.6,3.5,0.6H374c2.4,0,4.7-0.9,6.5-2.4L591.2,510c4.2-3.6,4.7-9.9,1.1-14.1c-0.2-0.2-0.3-0.4-0.5-0.6l-33-33l33-33
	c3.9-3.9,3.9-10.3,0-14.2L461.4,284.6z M173.4,295.9l166.4,166.4h-38.9c-8.8-29.8-36.2-50.3-67.3-50.2c-35.5,0.2-65.3,26.7-69.7,62
	l-31.3,13.4l-75.4-75.4L173.4,295.9z M417.4,511.5l-52.4-52.4c3.8-21.4,22.5-37,44.2-36.9c24.9-0.1,45.1,20.1,45.1,45
	C454.3,488.9,438.8,507.6,417.4,511.5z M445.4,521.5l-10.4,7.5l-1.3-1.3C437.8,526.1,441.7,524,445.4,521.5L445.4,521.5L445.4,521.5
	z M193.4,462.3c-1.4,0-2.7,0.3-4,0.8l-2.4,1c9.9-25.7,38.8-38.5,64.5-28.6c12.5,4.8,22.6,14.5,27.9,26.8H193.4z M362.9,581.1
	l-83.6-38.6H354c5.5,0,10-4.5,10-10v-46l54.5,54.5L362.9,581.1z M538.1,454.6l-88.4,63.9c28.2-22.4,32.8-63.5,10.4-91.6
	c-22.5-28.2-63.5-32.8-91.6-10.4c-8.7,6.9-15.5,16-19.7,26.3L333,427.2l121.3-121.3l116.2,116.2L538.1,454.6z"/>
</svg>
