<?xml version="1.0" encoding="utf-8"?>
<!-- Generator: Adobe Illustrator 18.0.0, SVG Export Plug-In . SVG Version: 6.00 Build 0)  -->
<!DOCTYPE svg PUBLIC "-//W3C//DTD SVG 1.1//EN" "http://www.w3.org/Graphics/SVG/1.1/DTD/svg11.dtd">
<svg version="1.1" id="Capa_1" xmlns="http://www.w3.org/2000/svg" xmlns:xlink="http://www.w3.org/1999/xlink" x="0px" y="0px"
	 viewBox="0 0 612 792" enable-background="new 0 0 612 792" xml:space="preserve">
<g transform="translate(-1)">
	<g transform="translate(2 1)">
		<path fill="#BDC3C7" d="M172.9,160.4l-5.9,8.8L117.3,242H50c-22.5,0-40.8-18.3-40.8-40.8s18.3-40.8,40.8-40.8c0-2,0.1-4,0.3-5.9
			c0.1-1.7,0.4-3.5,0.7-5.2c0.1-0.8,0.3-1.6,0.5-2.4c0.2-1.2,0.6-2.4,0.9-3.7c0.4-1.4,0.9-2.8,1.4-4.1c0.4-1.1,0.8-2.2,1.3-3.4
			c0.7-1.5,1.4-3.1,2.1-4.5c0.1-0.1,0.2-0.2,0.2-0.3c1.7-2.9,3.5-5.7,5.6-8.4c0.9-1.1,1.8-2.2,2.9-3.4l0.6-0.6
			c0.4-0.5,0.9-1,1.4-1.4c0.7-0.8,1.4-1.4,2.1-2.1c1-0.9,2-1.7,3.1-2.5c0.4-0.3,0.9-0.7,1.3-1c0.9-0.7,1.9-1.4,3.1-2.1
			c2.7-1.9,5.7-3.5,8.8-4.8l4.6-1.8c1.6-0.5,3.3-1,4.9-1.4l3.7-0.9c2-0.4,4-0.6,6-0.8c1.9-0.2,3.7-0.3,5.6-0.3
			c33.8,0,61.2,27.4,61.2,61.2L172.9,160.4L172.9,160.4z"/>
		<path fill="#FFE97D" d="M172.9,160.4l-5.9,8.8L117.3,242H50c-22.5,0-40.8-18.3-40.8-40.8s18.3-40.8,40.8-40.8c0-2,0.1-4,0.3-5.9
			c0.1-1.7,0.4-3.5,0.7-5.2c0.1-0.8,0.3-1.6,0.5-2.4c0.2-1.2,0.6-2.4,0.9-3.7c0.4-1.4,0.9-2.8,1.4-4.1c0.4-1.1,0.8-2.2,1.3-3.4
			c0.7-1.5,1.4-3.1,2.1-4.5c0.1-0.1,0.2-0.2,0.2-0.3c1.7-2.9,3.5-5.7,5.6-8.4c0.9-1.1,1.8-2.2,2.9-3.4l0.6-0.6
			c0.4-0.5,0.9-1,1.4-1.4c0.7-0.8,1.4-1.4,2.1-2.1c1-0.9,2-1.7,3.1-2.5c0.4-0.3,0.9-0.7,1.3-1c0.9-0.7,1.9-1.4,3.1-2.1
			c2.8-1.8,5.7-3.4,8.8-4.8l4.6-1.8c1.6-0.5,3.3-1,4.9-1.4l3.7-0.9c2-0.4,4-0.6,6-0.8c1.9-0.2,3.7-0.3,5.6-0.3
			c33.8,0,61.2,27.4,61.2,61.2L172.9,160.4L172.9,160.4z"/>
		<path fill="#FFFFFF" d="M167,169.2L117.3,242H50c-22.5,0-40.8-18.3-40.8-40.8s18.3-40.8,40.8-40.8c0-2,0.1-4,0.3-5.9
			c0.1-1.7,0.4-3.5,0.7-5.2c0.1-0.8,0.3-1.6,0.5-2.4c0.2-1.2,0.6-2.4,0.9-3.7c0.4-1.4,0.9-2.8,1.4-4.1c0.4-1.1,0.8-2.2,1.3-3.4
			c0.7-1.5,1.4-3.1,2.1-4.5c0.1-0.1,0.2-0.2,0.2-0.3c1.7-2.9,3.5-5.7,5.6-8.4c0.9-1.1,1.8-2.2,2.9-3.4l0.6-0.6
			c0.4-0.5,0.9-1,1.4-1.4c0.7-0.8,1.4-1.4,2.1-2.1c1-0.9,2-1.7,3.1-2.5c0.4-0.3,0.9-0.7,1.3-1c0.9-0.7,1.9-1.4,3.1-2.1
			c2.8-1.8,5.7-3.4,8.8-4.8l4.6-1.8c1.6-0.5,3.3-1,4.9-1.4c27,7,45.9,31.3,45.9,59.2C151,160.4,159.8,163.5,167,169.2z"/>
		<path fill="#FAD715" d="M291.1,411.4c16-15.7,25-37.2,24.9-59.6c0.6-44.9-35.2-81.7-80.1-82.4h-0.3c8.9-11.9,13.7-26.4,13.7-41.2
			c0.5-37.4-29.3-68.1-66.7-68.6c-5.2,0-10.3,0.6-15.3,1.9c30.5,7.7,51.7,35.3,51.4,66.7c0,14.9-4.8,29.3-13.7,41.2h0.3
			c44.9,0.7,80.7,37.6,80.1,82.4c0.1,22.4-8.9,43.9-24.9,59.6c41.2,14.4,67.7,54.6,64.6,98.2s-34.9,79.6-77.8,88.1
			c5,0.9,10.2,1.3,15.3,1.3c52.3-0.8,94.1-43.8,93.3-96.1C356.4,461.6,330.2,424.7,291.1,411.4z"/>
		<path fill="#FAD715" d="M325.4,502.9c0.5,46.4-32.4,86.4-78,94.8c-27.3-4.8-51-21.4-64.8-45.5c-4.2,7.2-9.4,13.9-15.3,19.8
			c-17.1,17.3-40.4,27-64.8,27c-5.1,0-10.3-0.4-15.3-1.3c-42.8-8.4-74.7-44.5-77.8-88.1s23.4-83.8,64.6-98.2
			c-16-15.7-25-37.2-24.9-59.6c-0.6-44.9,35.2-81.7,80.1-82.4h0.3c-8.9-11.9-13.7-26.4-13.7-41.2c-0.3-31.4,20.9-59,51.4-66.7
			c30.5,7.7,51.7,35.3,51.4,66.7c0,14.9-4.8,29.3-13.7,41.2h0.3c44.9,0.7,80.7,37.6,80.1,82.4c0.1,22.4-8.9,43.9-24.9,59.6
			C299.6,424.7,325.8,461.6,325.4,502.9z"/>
		<path fill="#FFE97D" d="M600.8,293c0,10.8-4.3,21.2-11.9,28.9c-7.7,7.7-18,11.9-28.9,11.9H437.6c-22.5,0-40.8-18.3-40.8-40.8
			c0-22.5,18.3-40.8,40.8-40.8c0-27.9,18.9-52.2,45.9-59.2c5-1.4,10.1-2,15.3-2c33.8,0,61.2,27.4,61.2,61.2
			c10.8,0,21.2,4.3,28.9,11.9C596.5,271.8,600.8,282.2,600.8,293z"/>
		<path fill="#FFFFFF" d="M570.2,293c0,10.8-4.3,21.2-11.9,28.9c-7.7,7.7-18,11.9-28.9,11.9h-91.8c-22.5,0-40.8-18.3-40.8-40.8
			c0-22.5,18.3-40.8,40.8-40.8c0-27.9,18.9-52.2,45.9-59.2c27,7,45.9,31.3,45.9,59.2c10.8,0,21.2,4.3,28.9,11.9
			C565.9,271.8,570.2,282.2,570.2,293z"/>
	</g>
	<g>
		<path d="M602.8,569.4c5.6,0,10.2-4.6,10.2-10.2c0-5.6-4.6-10.2-10.2-10.2h-10.2c0-5.6-4.6-10.2-10.2-10.2
			c-5.6,0-10.2,4.6-10.2,10.2H409v-10.2c0-5.6-4.6-10.2-10.2-10.2s-10.2,4.6-10.2,10.2V549h-10.2c-5.6,0-10.2,4.6-10.2,10.2
			c0,5.6,4.6,10.2,10.2,10.2h10.2V600h-10.2c-5.6,0-10.2,4.6-10.2,10.2c0,5.6,4.6,10.2,10.2,10.2h10.2v10.2h-10.2
			c-5.6,0-10.2,4.6-10.2,10.2c0,5.6,4.6,10.2,10.2,10.2h10.2v30.6H215.2v-84.4c15.1,8.5,32.1,13,49.4,13
			c57.9-0.8,104.2-48.4,103.6-106.3c0.3-40.3-22.2-77.3-58.1-95.5c11.8-16.1,18.2-35.6,18.1-55.5c0.4-44.1-30.6-82.2-73.7-91
			c10.9-24.1,9-52.1-5-74.5c-14-22.4-38.4-36.3-64.8-37c-0.3,0-0.6,0-0.9,0c-5.4-35.1-35.8-60.9-71.4-60.5
			c-35.5,0.4-65.3,26.9-69.9,62.1c-25.8,5-43.7,28.7-41.2,54.9s24.5,46.2,50.8,46.2h59.5c0.9,2.9,2,5.8,3.3,8.6
			c-43.2,8.8-74.1,47-73.7,91c-0.1,20,6.2,39.4,18.1,55.5C23.2,426.6,0.7,463.6,1,503.9c-0.7,57.9,45.6,105.5,103.6,106.3
			c17.3,0,34.3-4.5,49.4-13v84.4H11.2c-5.6,0-10.2,4.6-10.2,10.2c0,5.6,4.6,10.2,10.2,10.2h591.6c5.6,0,10.2-4.6,10.2-10.2
			c0-5.6-4.6-10.2-10.2-10.2h-10.2V651h10.2c5.6,0,10.2-4.6,10.2-10.2c0-5.6-4.6-10.2-10.2-10.2h-10.2v-10.2h10.2
			c5.6,0,10.2-4.6,10.2-10.2s-4.6-10.2-10.2-10.2h-10.2v-30.6L602.8,569.4L602.8,569.4z M52,232.8c-16.9,0-30.6-13.7-30.6-30.6
			s13.7-30.6,30.6-30.6c2.7,0,5.3-1.1,7.2-3c1.9-1.9,3-4.5,3-7.2c-0.1-26.6,20.4-48.8,47-50.8c26.5-2.1,50.2,16.7,54.2,43
			c-33.3,10.2-55.9,41-55.7,75.7c0,1.2,0.1,2.3,0.2,3.5C107.9,232.8,52,232.8,52,232.8z M21.4,503.9C21,467,44.3,434,79.2,422.1
			c3.4-1.1,5.9-3.9,6.7-7.4c0.8-3.5-0.2-7.1-2.8-9.6c-14-13.8-21.9-32.6-21.8-52.3c-0.7-38.9,30.1-71.1,69-72.2
			c4.2,0.4,8.2-1.8,10.2-5.5c1.7-3.4,1.4-7.5-0.9-10.6c-7.6-10.2-11.7-22.5-11.7-35.2c-0.5-31.7,24.8-57.9,56.5-58.5
			c31.7,0.6,57,26.7,56.5,58.5c0,12.7-4.1,25-11.7,35.2c-2.2,3.1-2.5,7.2-0.7,10.6c1.8,3.4,5.4,5.6,9.3,5.6
			c39.2,0.7,70.4,33,69.8,72.2c0.1,19.6-7.7,38.5-21.8,52.3c-2.5,2.5-3.6,6.1-2.8,9.6s3.4,6.3,6.7,7.4
			c39.2,13.7,63.1,53.3,56.9,94.4c-6.2,41-40.7,71.8-82.2,73.4c-27.8-0.1-53.7-14.4-68.6-37.8l67.2-67.2c3.9-4,3.9-10.4-0.1-14.4
			c-4-4-10.4-4-14.4-0.1l-54,54V420.6l48-48c3.9-4,3.9-10.4,0-14.4c-4-4-10.4-4-14.4,0l-33.6,33.6V345c0-5.6-4.6-10.2-10.2-10.2
			c-5.6,0-10.2,4.6-10.2,10.2v46.8l-33.6-33.6c-4-3.9-10.4-3.9-14.4,0c-4,4-4,10.4,0,14.4l48,48v103.8l-54-54
			c-4-3.9-10.4-3.9-14.4,0c-4,4-4,10.4,0,14.4l67.2,67.2c-14.9,23.5-40.8,37.7-68.6,37.8C57.9,589,20.7,550.5,21.4,503.9z
			 M174.4,681.6v-99.4c3.7-3.4,7.1-7.1,10.2-11c3.1,3.9,6.5,7.5,10.2,11v99.4H174.4z M572.2,681.6H409V651h163.2V681.6z
			 M572.2,630.6H409v-10.2h163.2V630.6z M572.2,600H409v-30.6h163.2V600z"/>
		<path d="M571.6,243.9c-4.7-35.5-35-62.1-70.8-62.1s-66.1,26.6-70.8,62.1c-25.8,4.9-43.7,28.7-41.2,54.9
			c2.5,26.2,24.5,46.2,50.8,46.2H562c26.3,0,48.3-20,50.8-46.2C615.3,272.6,597.4,248.9,571.6,243.9z M562,324.6H439.6
			c-16.9,0-30.6-13.7-30.6-30.6s13.7-30.6,30.6-30.6c2.7,0,5.3-1.1,7.2-3c1.9-1.9,3-4.5,3-7.2c0-28.2,22.8-51,51-51
			c28.2,0,51,22.8,51,51c0,2.7,1.1,5.3,3,7.2c1.9,1.9,4.5,3,7.2,3c16.9,0,30.6,13.7,30.6,30.6S578.9,324.6,562,324.6z"/>
	</g>
</g>
</svg>
